<?xml version="1.0" encoding="utf-8"?>
<!-- Generator: Adobe Illustrator 24.3.0, SVG Export Plug-In . SVG Version: 6.00 Build 0)  -->
<svg version="1.1" id="Livello_1" xmlns="http://www.w3.org/2000/svg" xmlns:xlink="http://www.w3.org/1999/xlink" x="0px" y="0px"
	 viewBox="0 0 595.28 841.89" style="enable-background:new 0 0 595.28 841.89;" xml:space="preserve">
<style type="text/css">
	.st0{fill:#F5F3E8;}
	.st1{fill:#E1DED5;}
	.st2{fill:#5E5C55;}
</style>
<g>
	<path class="st0" d="M232.31,255.28l129.1-71.07c0,0,22.08,14.84,30.3,25.38c8.94,11.47,16.91,28.38,5.06,36.92
		c-11.86,8.54-126.25,80.76-126.25,80.76s15.48-8.08-3.95-34.16C248.16,268.43,232.31,255.28,232.31,255.28z"/>
	<path class="st1" d="M241.61,268.82l-9.3,5.23l4.03,6l-12,6.62c0,0-2.49,6.92,12.58,23.54c15.08,16.61,32.06,19.69,35.28,12.77
		c3.22-6.92,0.18-18.71-8.35-29.08C254.49,282.5,241.61,268.82,241.61,268.82z"/>
	<path class="st0" d="M235.6,275.36c0,0,25.4,19.31,27.22,36.23c1.02,9.44-24.81-15.07-28.86-19.83
		c-3.05-3.57,3.83,22.83,30.4,30.21c0,0-20.14-2.64-32.06-24.35c-9.95-18.11,3.52-9.03,7.24-4.5c0.3,0.37,22.97,22.67,19.69,14.16
		C255.36,297.2,243,283.05,235.6,275.36z"/>
	<g>
		<g>
			<path class="st2" d="M260.36,255.15l7.12-4l16.58,9.13l-7.3-14.35l7.19-4.02l13.17,25.93l-7.19,4.03l-16.48-9.04l7.24,14.24
				l-7.17,4.02L260.36,255.15z"/>
			<path class="st2" d="M289,239.07l20.43-11.47l2.8,5.54l-12.78,7.18l2.1,4.12l11.86-6.66l2.68,5.29l-11.86,6.65l2.6,5.11
				l13.15-7.38l2.99,5.88L302.18,265L289,239.07z"/>
			<path class="st2" d="M311.36,226.52l7.24-4.07l9.99,13.05l-3.56-16.66l7.21-4.05l11.19,12.35l-4.76-15.96l7.2-4.04l7.74,28.98
				l-7.47,4.2l-12.62-13.89l3.98,18.75l-7.47,4.19L311.36,226.52z"/>
			<path class="st2" d="M355.86,223.84l7.02-4.55c0.78,1.15,1.58,1.91,2.4,2.29c1.32,0.61,2.71,0.51,4.16-0.31
				c1.09-0.61,1.8-1.35,2.11-2.22c0.32-0.87,0.3-1.65-0.06-2.36c-0.34-0.67-0.92-1.11-1.76-1.33c-0.83-0.22-2.39,0.01-4.67,0.69
				c-3.74,1.08-6.66,1.37-8.75,0.87c-2.1-0.5-3.67-1.77-4.7-3.8c-0.68-1.33-0.95-2.79-0.81-4.39c0.13-1.6,0.77-3.15,1.9-4.66
				c1.13-1.5,2.98-2.98,5.55-4.42c3.15-1.77,5.86-2.51,8.16-2.2c2.27,0.31,4.26,1.71,5.94,4.22l-6.96,4.48
				c-0.79-1.06-1.62-1.69-2.49-1.87c-0.88-0.19-1.87,0.02-2.94,0.62c-0.89,0.5-1.46,1.08-1.7,1.71c-0.25,0.65-0.22,1.26,0.06,1.82
				c0.21,0.42,0.58,0.68,1.12,0.8c0.54,0.14,1.56-0.02,3.05-0.48c3.72-1.12,6.49-1.69,8.33-1.73c1.84-0.04,3.37,0.33,4.61,1.11
				c1.24,0.77,2.22,1.86,2.94,3.29c0.84,1.66,1.18,3.44,1.02,5.34c-0.17,1.89-0.85,3.65-2.05,5.25c-1.2,1.61-3,3.08-5.39,4.42
				c-4.19,2.36-7.53,3.14-10.01,2.35C359.42,227.98,357.4,226.34,355.86,223.84z"/>
		</g>
		<polygon class="st2" points="362.29,191.85 243.53,259.04 242.4,256.85 361.16,189.65 		"/>
		<polygon class="st2" points="389.02,222.25 271.28,291.4 270.13,289.23 387.86,220.09 		"/>
		<polygon class="st2" points="392.35,225.55 274.61,294.7 273.45,292.53 391.2,223.38 		"/>
	</g>
</g>
</svg>
